<svg width="40" height="40" viewBox="0 0 40 40" fill="none" xmlns="http://www.w3.org/2000/svg">
<path d="M33.9998 12.3335H13.9998C12.1589 12.3335 10.6665 13.8259 10.6665 15.6668V35.6668C10.6665 37.5078 12.1589 39.0002 13.9998 39.0002H33.9998C35.8408 39.0002 37.3332 37.5078 37.3332 35.6668V15.6668C37.3332 13.8259 35.8408 12.3335 33.9998 12.3335Z" fill="#DFDFFF"/>
<path d="M30.0001 8.3335H10.0001C8.15913 8.3335 6.66675 9.82588 6.66675 11.6668V31.6668C6.66675 33.5078 8.15913 35.0002 10.0001 35.0002H30.0001C31.841 35.0002 33.3334 33.5078 33.3334 31.6668V11.6668C33.3334 9.82588 31.841 8.3335 30.0001 8.3335Z" stroke="#6363FC" stroke-width="2" stroke-linecap="round" stroke-linejoin="round"/>
<path d="M26.6667 5V11.6667" stroke="#6363FC" stroke-width="2" stroke-linecap="round" stroke-linejoin="round"/>
<path d="M13.3333 5V11.6667" stroke="#6363FC" stroke-width="2" stroke-linecap="round" stroke-linejoin="round"/>
<path d="M6.66675 18.3335H33.3334" stroke="#6363FC" stroke-width="2" stroke-linecap="round" stroke-linejoin="round"/>
<path d="M16.6667 26.6665H23.3334" stroke="#6363FC" stroke-width="2" stroke-linecap="round" stroke-linejoin="round"/>
</svg>
