<svg width="46" height="46" viewBox="0 0 46 46" fill="none" xmlns="http://www.w3.org/2000/svg">
<path d="M39.4285 4.65527H16.4285C13.2528 4.65527 10.6785 7.22964 10.6785 10.4053V25.7386C10.6785 28.9142 13.2528 31.4886 16.4285 31.4886H39.4285C42.6041 31.4886 45.1785 28.9142 45.1785 25.7386V10.4053C45.1785 7.22964 42.6041 4.65527 39.4285 4.65527Z" fill="#E4E4FF"/>
<path d="M34.5 9.5835H11.5C8.32436 9.5835 5.75 12.1579 5.75 15.3335V30.6668C5.75 33.8425 8.32436 36.4168 11.5 36.4168H34.5C37.6756 36.4168 40.25 33.8425 40.25 30.6668V15.3335C40.25 12.1579 37.6756 9.5835 34.5 9.5835Z" stroke="#6363FC" stroke-width="2" stroke-linecap="round" stroke-linejoin="round"/>
<path d="M5.75 19.1665H40.25" stroke="#6363FC" stroke-width="2" stroke-linecap="round" stroke-linejoin="round"/>
<path d="M13.4167 28.75H13.4351" stroke="#6363FC" stroke-width="2" stroke-linecap="round" stroke-linejoin="round"/>
<path d="M21.0833 28.75H24.9166" stroke="#6363FC" stroke-width="2" stroke-linecap="round" stroke-linejoin="round"/>
</svg>
