<svg width="48" height="48" viewBox="0 0 48 48" fill="none" xmlns="http://www.w3.org/2000/svg">
<path d="M36.384 3.83984H20.256C19.1426 3.83984 18.24 4.67259 18.24 5.69984V31.7398C18.24 32.7671 19.1426 33.5998 20.256 33.5998H36.384C37.4974 33.5998 38.4 32.7671 38.4 31.7398V5.69984C38.4 4.67259 37.4974 3.83984 36.384 3.83984Z" fill="#DFDFFF"/>
<path d="M32 9H16C14.8954 9 14 9.83947 14 10.875V37.125C14 38.1605 14.8954 39 16 39H32C33.1046 39 34 38.1605 34 37.125V10.875C34 9.83947 33.1046 9 32 9Z" stroke="#6363FC" stroke-width="2" stroke-linecap="round" stroke-linejoin="round"/>
<path d="M22 12.9199H26" stroke="#6363FC" stroke-width="2" stroke-linecap="round" stroke-linejoin="round"/>
<path d="M24 34.96V34.98" stroke="#6363FC" stroke-width="2" stroke-linecap="round" stroke-linejoin="round"/>
</svg>
