<svg width="46" height="46" viewBox="0 0 46 46" fill="none" xmlns="http://www.w3.org/2000/svg">
<path d="M36.5835 25.0835H17.4168C15.2997 25.0835 13.5835 26.7997 13.5835 28.9168V40.4168C13.5835 42.5339 15.2997 44.2502 17.4168 44.2502H36.5835C38.7006 44.2502 40.4168 42.5339 40.4168 40.4168V28.9168C40.4168 26.7997 38.7006 25.0835 36.5835 25.0835Z" fill="#DFDFFF"/>
<path d="M32.5834 21.0835H13.4167C11.2996 21.0835 9.58337 22.7997 9.58337 24.9168V36.4168C9.58337 38.5339 11.2996 40.2502 13.4167 40.2502H32.5834C34.7005 40.2502 36.4167 38.5339 36.4167 36.4168V24.9168C36.4167 22.7997 34.7005 21.0835 32.5834 21.0835Z" stroke="#6363FC" stroke-width="2" stroke-linecap="round" stroke-linejoin="round"/>
<path d="M23 32.5833C24.0586 32.5833 24.9167 31.7252 24.9167 30.6667C24.9167 29.6081 24.0586 28.75 23 28.75C21.9415 28.75 21.0834 29.6081 21.0834 30.6667C21.0834 31.7252 21.9415 32.5833 23 32.5833Z" stroke="#6363FC" stroke-width="2" stroke-linecap="round" stroke-linejoin="round"/>
<path d="M15.3334 21.0833V13.4167C15.3334 11.3833 16.1411 9.43329 17.5789 7.99551C19.0167 6.55774 20.9667 5.75 23 5.75C25.0334 5.75 26.9834 6.55774 28.4212 7.99551C29.859 9.43329 30.6667 11.3833 30.6667 13.4167V21.0833" stroke="#6363FC" stroke-width="2" stroke-linecap="round" stroke-linejoin="round"/>
</svg>
