<svg width="35" height="38" viewBox="0 0 35 38" fill="none" xmlns="http://www.w3.org/2000/svg">
<path d="M20.3182 0.34082C24.1341 4.24439 29.1146 6.27684 34.2043 6.00754C34.9453 8.92215 35.1721 11.9793 34.8711 14.9972C34.57 18.0151 33.7474 20.9323 32.4521 23.5754C31.1567 26.2185 29.4151 28.5335 27.3306 30.3829C25.2462 32.2323 22.8615 33.5784 20.3182 34.3411C17.7749 33.5784 15.3902 32.2323 13.3058 30.3829C11.2213 28.5335 9.47967 26.2185 8.18431 23.5754C6.88896 20.9323 6.06633 18.0151 5.76531 14.9972C5.4643 11.9793 5.69103 8.92215 6.43205 6.00754C11.5218 6.27684 16.5022 4.24439 20.3182 0.34082Z" fill="#DFDFFF"/>
<path d="M10.8525 20.4316L14.0723 23.6514L20.5117 17.2119" stroke="#6363FC" stroke-width="2" stroke-linecap="round" stroke-linejoin="round"/>
<path d="M15.6815 2.6582C19.4974 6.56177 24.4779 8.59422 29.5676 8.32492C30.3086 11.2395 30.5354 14.2966 30.2343 17.3146C29.9333 20.3325 29.1107 23.2497 27.8153 25.8928C26.52 28.5358 24.7783 30.8509 22.6939 32.7003C20.6094 34.5497 18.2247 35.8958 15.6815 36.6585C13.1382 35.8958 10.7535 34.5497 8.66904 32.7003C6.5846 30.8509 4.84295 28.5358 3.54759 25.8928C2.25224 23.2497 1.42961 20.3325 1.12859 17.3146C0.827578 14.2966 1.05432 11.2395 1.79533 8.32492C6.88506 8.59422 11.8655 6.56177 15.6815 2.6582" stroke="#6363FC" stroke-width="2" stroke-linecap="round" stroke-linejoin="round"/>
</svg>
