<svg width="46" height="56" viewBox="0 0 46 56" fill="none" xmlns="http://www.w3.org/2000/svg">
<rect x="0.289062" y="13" width="28.9333" height="33.0667" rx="2" fill="#E4E4FF"/>
<path d="M33.6312 17.1904L41.512 24.826C43.6614 26.9324 44.3778 29.6532 44.3778 34.7436C44.3778 42.2914 44.2883 54.052 44.2883 54.052M17.5112 38.2542C17.4223 41.8352 18.4536 45.3572 20.4665 48.3472C22.974 52.2967 22.8845 53.4376 22.8845 54.052" stroke="#6363FC" stroke-width="2" stroke-miterlimit="10" stroke-linecap="round" stroke-linejoin="round"/>
<path d="M24.4966 38.2543H10.3468C9.87174 38.2543 9.41617 38.0693 9.08027 37.7402C8.74437 37.411 8.55566 36.9645 8.55566 36.499V3.1479C8.55566 2.68236 8.74437 2.23589 9.08027 1.9067C9.41617 1.57751 9.87174 1.39258 10.3468 1.39258H31.8401C32.3151 1.39258 32.7707 1.57751 33.1066 1.9067C33.4425 2.23589 33.6312 2.68236 33.6312 3.1479V30.3553M24.6757 1.39258V21.5787" stroke="#6363FC" stroke-width="2" stroke-miterlimit="10" stroke-linecap="round" stroke-linejoin="round"/>
<path d="M37.303 33.9533L23.2427 20.2618C22.4057 19.4577 21.2804 19.0073 20.1083 19.0073C18.9362 19.0073 17.8109 19.4577 16.9739 20.2618C16.1534 21.0821 15.6938 22.1849 15.6938 23.3336C15.6938 24.4822 16.1534 25.5851 16.9739 26.4054L24.6756 33.9533C24.6756 33.9533 22.3472 40.9746 30.049 47.0305" stroke="#6363FC" stroke-width="2" stroke-miterlimit="10" stroke-linecap="round" stroke-linejoin="round"/>
</svg>
