<svg width="78" height="78" viewBox="0 0 78 78" fill="none" xmlns="http://www.w3.org/2000/svg">
<path d="M55.5 47.25V53.75C55.5 55.4739 54.8152 57.1272 53.5962 58.3462C52.3772 59.5652 50.7239 60.25 49 60.25H16.5C14.7761 60.25 13.1228 59.5652 11.9038 58.3462C10.6848 57.1272 10 55.4739 10 53.75V34.25C10 32.5261 10.6848 30.8728 11.9038 29.6538C13.1228 28.4348 14.7761 27.75 16.5 27.75H23" fill="#E4E4FF"/>
<path d="M60.75 17H28.25C24.6601 17 21.75 19.9101 21.75 23.5V43C21.75 46.5899 24.6601 49.5 28.25 49.5H60.75C64.3399 49.5 67.25 46.5899 67.25 43V23.5C67.25 19.9101 64.3399 17 60.75 17Z" fill="white" stroke="#6363FC" stroke-width="2" stroke-linecap="round" stroke-linejoin="round"/>
<path d="M44.5 39.75C48.0899 39.75 51 36.8399 51 33.25C51 29.6601 48.0899 26.75 44.5 26.75C40.9101 26.75 38 29.6601 38 33.25C38 36.8399 40.9101 39.75 44.5 39.75Z" stroke="#6363FC" stroke-width="2" stroke-linecap="round" stroke-linejoin="round"/>
<path d="M29.5 33H31.5" stroke="#6363FC" stroke-width="2" stroke-linecap="round"/>
<path d="M57.5 33H59.5" stroke="#6363FC" stroke-width="2" stroke-linecap="round"/>
</svg>
