<svg width="56" height="56" viewBox="0 0 56 56" fill="none" xmlns="http://www.w3.org/2000/svg">
<rect x="14" y="24" width="40" height="30" rx="5" fill="#E4E4FF"/>
<path d="M39.6668 18.6668V11.6668C39.6668 11.048 39.421 10.4545 38.9834 10.0169C38.5458 9.57933 37.9523 9.3335 37.3335 9.3335H14.0002C12.7625 9.3335 11.5755 9.82516 10.7003 10.7003C9.82516 11.5755 9.3335 12.7625 9.3335 14.0002M9.3335 14.0002C9.3335 15.2378 9.82516 16.4248 10.7003 17.3C11.5755 18.1752 12.7625 18.6668 14.0002 18.6668H42.0002C42.619 18.6668 43.2125 18.9127 43.6501 19.3502C44.0877 19.7878 44.3335 20.3813 44.3335 21.0002V28.0002M9.3335 14.0002V42.0002C9.3335 43.2378 9.82516 44.4248 10.7003 45.3C11.5755 46.1752 12.7625 46.6668 14.0002 46.6668H42.0002C42.619 46.6668 43.2125 46.421 43.6501 45.9834C44.0877 45.5458 44.3335 44.9523 44.3335 44.3335V37.3335" stroke="#6363FC" stroke-width="2" stroke-linecap="round" stroke-linejoin="round"/>
<path d="M46.6665 28V37.3333H37.3332C36.0955 37.3333 34.9085 36.8417 34.0333 35.9665C33.1582 35.0913 32.6665 33.9043 32.6665 32.6667C32.6665 31.429 33.1582 30.242 34.0333 29.3668C34.9085 28.4917 36.0955 28 37.3332 28H46.6665Z" stroke="#6363FC" stroke-width="2" stroke-linecap="round" stroke-linejoin="round"/>
</svg>
