<svg width="56" height="64" viewBox="0 0 56 64" fill="none" xmlns="http://www.w3.org/2000/svg">
<path d="M34.72 2.48291C40.1703 7.99378 47.2838 10.8631 54.5533 10.4829C55.6117 14.5976 55.9356 18.9135 55.5056 23.1741C55.0757 27.4346 53.9007 31.553 52.0506 35.2843C50.2005 39.0157 47.7129 42.2839 44.7357 44.8949C41.7585 47.5058 38.3525 49.4061 34.72 50.4829C31.0875 49.4061 27.6814 47.5058 24.7043 44.8949C21.7271 42.2839 19.2395 39.0157 17.3894 35.2843C15.5392 31.553 14.3643 27.4346 13.9344 23.1741C13.5044 18.9135 13.8283 14.5976 14.8867 10.4829C22.1562 10.8631 29.2697 7.99378 34.72 2.48291Z" fill="#E4E4FF"/>
<path d="M21 31.9998L25.6667 37.3332L35 26.6665" stroke="#6363FC" stroke-width="2" stroke-linecap="round" stroke-linejoin="round"/>
<path d="M27.9998 8C33.45 13.5109 40.5635 16.3802 47.8331 16C48.8915 20.1147 49.2153 24.4306 48.7854 28.6912C48.3555 32.9517 47.1805 37.0701 45.3304 40.8014C43.4803 44.5328 40.9927 47.801 38.0155 50.4119C35.0383 53.0229 31.6323 54.9232 27.9998 56C24.3673 54.9232 20.9612 53.0229 17.984 50.4119C15.0069 47.801 12.5193 44.5328 10.6692 40.8014C8.81903 37.0701 7.64409 32.9517 7.21415 28.6912C6.78422 24.4306 7.10806 20.1147 8.16644 16C15.436 16.3802 22.5495 13.5109 27.9998 8" stroke="#6363FC" stroke-width="2" stroke-linecap="round" stroke-linejoin="round"/>
</svg>
