<svg width="63" height="63" viewBox="0 0 63 63" fill="none" xmlns="http://www.w3.org/2000/svg">
<path d="M37 49C48.598 49 58 39.598 58 28C58 16.402 48.598 7 37 7C25.402 7 16 16.402 16 28C16 39.598 25.402 49 37 49Z" fill="#E4E4FF"/>
<path d="M28 56C39.598 56 49 46.598 49 35C49 23.402 39.598 14 28 14C16.402 14 7 23.402 7 35C7 46.598 16.402 56 28 56Z" stroke="#6363FC" stroke-width="2" stroke-linecap="round" stroke-linejoin="round"/>
<path d="M8.3999 28H47.5999" stroke="#6363FC" stroke-width="2" stroke-linecap="round" stroke-linejoin="round"/>
<path d="M8.3999 42H47.5999" stroke="#6363FC" stroke-width="2" stroke-linecap="round" stroke-linejoin="round"/>
<path d="M26.8332 14C22.9023 20.2991 20.8184 27.575 20.8184 35C20.8184 42.425 22.9023 49.7009 26.8332 56" stroke="#6363FC" stroke-width="2" stroke-linecap="round" stroke-linejoin="round"/>
<path d="M29.1665 14C33.0974 20.2991 35.1814 27.575 35.1814 35C35.1814 42.425 33.0974 49.7009 29.1665 56" stroke="#6363FC" stroke-width="2" stroke-linecap="round" stroke-linejoin="round"/>
</svg>
