<svg width="1272" height="225" viewBox="0 0 1272 225" fill="none" xmlns="http://www.w3.org/2000/svg">
<path d="M83.5 77L298 166L534 57.5L772.5 166L985.5 57.5L1216 166" stroke="#C2C2C2" stroke-dasharray="5 5"/>
<circle cx="523.5" cy="67.5" r="67.5" fill="#E4E4FF"/>
<path d="M556 37H562" stroke="#AAAAF5" stroke-linecap="round"/>
<path d="M481 95H487" stroke="#AAAAF5" stroke-linecap="round"/>
<path d="M559 40V34" stroke="#AAAAF5" stroke-linecap="round"/>
<path d="M542.5 75.5C542.167 76.254 542.068 77.0905 542.215 77.9015C542.362 78.7125 542.749 79.4608 543.325 80.05L543.475 80.2C543.94 80.6644 544.309 81.2158 544.56 81.8228C544.812 82.4298 544.941 83.0804 544.941 83.7375C544.941 84.3946 544.812 85.0452 544.56 85.6522C544.309 86.2592 543.94 86.8106 543.475 87.275C543.011 87.7399 542.459 88.1087 541.852 88.3603C541.245 88.6119 540.595 88.7414 539.938 88.7414C539.28 88.7414 538.63 88.6119 538.023 88.3603C537.416 88.1087 536.864 87.7399 536.4 87.275L536.25 87.125C535.661 86.5487 534.912 86.162 534.101 86.015C533.29 85.8679 532.454 85.9672 531.7 86.3C530.961 86.6169 530.33 87.1431 529.886 87.8138C529.442 88.4846 529.203 89.2705 529.2 90.075V90.5C529.2 91.8261 528.673 93.0979 527.736 94.0355C526.798 94.9732 525.526 95.5 524.2 95.5C522.874 95.5 521.602 94.9732 520.664 94.0355C519.727 93.0979 519.2 91.8261 519.2 90.5V90.275C519.181 89.4475 518.913 88.645 518.431 87.9718C517.95 87.2985 517.277 86.7857 516.5 86.5C515.746 86.1672 514.91 86.0679 514.099 86.215C513.288 86.362 512.539 86.7487 511.95 87.325L511.8 87.475C511.336 87.9399 510.784 88.3087 510.177 88.5603C509.57 88.8119 508.92 88.9414 508.262 88.9414C507.605 88.9414 506.955 88.8119 506.348 88.5603C505.741 88.3087 505.189 87.9399 504.725 87.475C504.26 87.0106 503.891 86.4592 503.64 85.8522C503.388 85.2452 503.259 84.5946 503.259 83.9375C503.259 83.2804 503.388 82.6298 503.64 82.0228C503.891 81.4158 504.26 80.8644 504.725 80.4L504.875 80.25C505.451 79.6608 505.838 78.9125 505.985 78.1015C506.132 77.2905 506.033 76.454 505.7 75.7C505.383 74.9606 504.857 74.33 504.186 73.8858C503.515 73.4416 502.729 73.2032 501.925 73.2H501.5C500.174 73.2 498.902 72.6732 497.964 71.7355C497.027 70.7979 496.5 69.5261 496.5 68.2C496.5 66.8739 497.027 65.6021 497.964 64.6645C498.902 63.7268 500.174 63.2 501.5 63.2H501.725C502.552 63.1806 503.355 62.9128 504.028 62.4313C504.701 61.9498 505.214 61.2768 505.5 60.5C505.833 59.746 505.932 58.9095 505.785 58.0985C505.638 57.2875 505.251 56.5392 504.675 55.95L504.525 55.8C504.06 55.3356 503.691 54.7842 503.44 54.1772C503.188 53.5702 503.059 52.9196 503.059 52.2625C503.059 51.6054 503.188 50.9548 503.44 50.3478C503.691 49.7408 504.06 49.1894 504.525 48.725C504.989 48.2601 505.541 47.8913 506.148 47.6397C506.755 47.3881 507.405 47.2586 508.062 47.2586C508.72 47.2586 509.37 47.3881 509.977 47.6397C510.584 47.8913 511.136 48.2601 511.6 48.725L511.75 48.875C512.339 49.4513 513.088 49.838 513.899 49.985C514.71 50.1321 515.546 50.0328 516.3 49.7H516.5C517.239 49.3831 517.87 48.8569 518.314 48.1862C518.758 47.5154 518.997 46.7295 519 45.925V45.5C519 44.1739 519.527 42.9021 520.464 41.9645C521.402 41.0268 522.674 40.5 524 40.5C525.326 40.5 526.598 41.0268 527.536 41.9645C528.473 42.9021 529 44.1739 529 45.5V45.725C529.003 46.5295 529.242 47.3154 529.686 47.9862C530.13 48.6569 530.761 49.1831 531.5 49.5C532.254 49.8328 533.09 49.9321 533.901 49.785C534.712 49.638 535.461 49.2513 536.05 48.675L536.2 48.525C536.664 48.0601 537.216 47.6913 537.823 47.4397C538.43 47.1881 539.08 47.0586 539.738 47.0586C540.395 47.0586 541.045 47.1881 541.652 47.4397C542.259 47.6913 542.811 48.0601 543.275 48.525C543.74 48.9894 544.109 49.5408 544.36 50.1478C544.612 50.7548 544.741 51.4054 544.741 52.0625C544.741 52.7196 544.612 53.3702 544.36 53.9772C544.109 54.5842 543.74 55.1356 543.275 55.6L543.125 55.75C542.549 56.3392 542.162 57.0875 542.015 57.8985C541.868 58.7095 541.967 59.546 542.3 60.3V60.5C542.617 61.2394 543.143 61.87 543.814 62.3142C544.485 62.7584 545.271 62.9968 546.075 63H546.5C547.826 63 549.098 63.5268 550.036 64.4645C550.973 65.4021 551.5 66.6739 551.5 68C551.5 69.3261 550.973 70.5979 550.036 71.5355C549.098 72.4732 547.826 73 546.5 73H546.275C545.471 73.0032 544.685 73.2416 544.014 73.6858C543.343 74.13 542.817 74.7606 542.5 75.5V75.5Z" fill="#D5D5FF" stroke="#AAAAF5" stroke-width="2.5" stroke-linecap="round" stroke-linejoin="round"/>
<path d="M518.853 70.368H515.301L514.641 72H512.217L515.925 63.6H518.265L521.985 72H519.513L518.853 70.368ZM518.157 68.616L517.077 65.928L515.997 68.616H518.157ZM526.498 63.6C527.258 63.6 527.918 63.728 528.478 63.984C529.038 64.232 529.47 64.592 529.774 65.064C530.078 65.528 530.23 66.076 530.23 66.708C530.23 67.34 530.078 67.888 529.774 68.352C529.47 68.816 529.038 69.176 528.478 69.432C527.918 69.68 527.258 69.804 526.498 69.804H525.034V72H522.658V63.6H526.498ZM526.354 67.932C526.842 67.932 527.21 67.828 527.458 67.62C527.706 67.404 527.83 67.1 527.83 66.708C527.83 66.316 527.706 66.012 527.458 65.796C527.21 65.58 526.842 65.472 526.354 65.472H525.034V67.932H526.354ZM531.389 63.6H533.765V72H531.389V63.6Z" fill="#AAAAF5"/>
<circle cx="977.5" cy="67.5" r="67.5" fill="#D0F2FF"/>
<path d="M1010 37H1016" stroke="#84BDD3" stroke-linecap="round"/>
<path d="M935 95H941" stroke="#84BDD3" stroke-linecap="round"/>
<path d="M1013 40V34" stroke="#84BDD3" stroke-linecap="round"/>
<path d="M993.5 70.5832L984.458 57.6665C983.588 56.0933 983.143 54.3203 983.168 52.5226C983.192 50.7248 983.685 48.9646 984.599 47.4158C985.512 45.8671 986.813 44.5833 988.374 43.6915C989.935 42.7997 991.702 42.3306 993.5 42.3306C995.298 42.3306 997.065 42.7997 998.626 43.6915C1000.19 44.5833 1001.49 45.8671 1002.4 47.4158C1003.31 48.9646 1003.81 50.7248 1003.83 52.5226C1003.86 54.3203 1003.41 56.0933 1002.54 57.6665L993.5 70.5832Z" fill="#B0DBEB" stroke="#84BDD3" stroke-width="2.5" stroke-linecap="round" stroke-linejoin="round"/>
<path d="M993.5 52.5V52.525" stroke="#84BDD3" stroke-width="5.5" stroke-linecap="round" stroke-linejoin="round"/>
<path d="M974.125 49.271L970.25 47.3335L954.75 55.0835V88.6668L970.25 80.9168L985.75 88.6668L1001.25 80.9168V75.7502" stroke="#84BDD3" stroke-width="2.5" stroke-linecap="round" stroke-linejoin="round"/>
<path d="M970.25 47.3335V80.9168" stroke="#84BDD3" stroke-width="2.5" stroke-linecap="round" stroke-linejoin="round"/>
<path d="M985.75 75.75V88.6667" stroke="#84BDD3" stroke-width="2.5" stroke-linecap="round" stroke-linejoin="round"/>
<circle cx="295.5" cy="157.5" r="67.5" fill="#FFF8D0"/>
<path d="M329 127H335" stroke="#CCC080" stroke-linecap="round"/>
<path d="M254 185H260" stroke="#CCC080" stroke-linecap="round"/>
<path d="M332 130V124" stroke="#CCC080" stroke-linecap="round"/>
<g clip-path="url(#clip0_84_3700)">
<path d="M306.667 173.528C309.06 173.528 311 171.587 311 169.194C311 166.801 309.06 164.861 306.667 164.861C304.273 164.861 302.333 166.801 302.333 169.194C302.333 171.587 304.273 173.528 306.667 173.528Z" fill="#ECE4B6" stroke="#CCC080" stroke-width="2.5" stroke-linecap="round" stroke-linejoin="round"/>
<path d="M317.356 173.527C317.163 173.963 317.106 174.446 317.191 174.915C317.276 175.383 317.499 175.816 317.832 176.156L317.919 176.243C318.187 176.511 318.401 176.83 318.546 177.181C318.691 177.531 318.766 177.907 318.766 178.287C318.766 178.666 318.691 179.042 318.546 179.393C318.401 179.744 318.187 180.062 317.919 180.331C317.651 180.599 317.332 180.812 316.981 180.958C316.631 181.103 316.255 181.178 315.875 181.178C315.495 181.178 315.119 181.103 314.769 180.958C314.418 180.812 314.099 180.599 313.831 180.331L313.744 180.244C313.404 179.911 312.972 179.688 312.503 179.603C312.035 179.518 311.551 179.575 311.116 179.767C310.688 179.95 310.324 180.255 310.067 180.642C309.811 181.03 309.673 181.484 309.671 181.949V182.194C309.671 182.96 309.367 183.695 308.825 184.237C308.283 184.779 307.548 185.083 306.782 185.083C306.016 185.083 305.281 184.779 304.739 184.237C304.198 183.695 303.893 182.96 303.893 182.194V182.064C303.882 181.586 303.727 181.122 303.449 180.733C303.171 180.344 302.782 180.048 302.333 179.883C301.898 179.691 301.414 179.633 300.946 179.718C300.477 179.803 300.045 180.027 299.704 180.36L299.618 180.446C299.349 180.715 299.031 180.928 298.68 181.073C298.329 181.219 297.954 181.294 297.574 181.294C297.194 181.294 296.818 181.219 296.468 181.073C296.117 180.928 295.798 180.715 295.53 180.446C295.261 180.178 295.048 179.859 294.903 179.509C294.758 179.158 294.683 178.782 294.683 178.402C294.683 178.023 294.758 177.647 294.903 177.296C295.048 176.945 295.261 176.627 295.53 176.359L295.617 176.272C295.95 175.931 296.173 175.499 296.258 175.03C296.343 174.562 296.286 174.079 296.093 173.643C295.91 173.216 295.606 172.851 295.219 172.595C294.831 172.338 294.377 172.2 293.912 172.199H293.667C292.9 172.199 292.166 171.894 291.624 171.352C291.082 170.811 290.778 170.076 290.778 169.31C290.778 168.543 291.082 167.809 291.624 167.267C292.166 166.725 292.9 166.421 293.667 166.421H293.797C294.275 166.41 294.738 166.255 295.127 165.977C295.516 165.698 295.813 165.31 295.978 164.861C296.17 164.425 296.227 163.942 296.142 163.473C296.057 163.005 295.834 162.572 295.501 162.232L295.414 162.145C295.146 161.877 294.933 161.558 294.787 161.208C294.642 160.857 294.567 160.481 294.567 160.101C294.567 159.722 294.642 159.346 294.787 158.995C294.933 158.644 295.146 158.326 295.414 158.057C295.683 157.789 296.001 157.576 296.352 157.43C296.703 157.285 297.079 157.21 297.458 157.21C297.838 157.21 298.214 157.285 298.565 157.43C298.915 157.576 299.234 157.789 299.502 158.057L299.589 158.144C299.929 158.477 300.362 158.7 300.83 158.785C301.299 158.87 301.782 158.813 302.218 158.621H302.333C302.761 158.438 303.125 158.134 303.382 157.746C303.638 157.359 303.776 156.904 303.778 156.44V156.194C303.778 155.428 304.082 154.693 304.624 154.151C305.166 153.61 305.9 153.305 306.667 153.305C307.433 153.305 308.168 153.61 308.709 154.151C309.251 154.693 309.556 155.428 309.556 156.194V156.324C309.557 156.789 309.695 157.243 309.952 157.631C310.208 158.018 310.573 158.322 311 158.505C311.436 158.697 311.919 158.755 312.388 158.67C312.856 158.585 313.288 158.362 313.629 158.029L313.716 157.942C313.984 157.673 314.302 157.46 314.653 157.315C315.004 157.169 315.38 157.095 315.759 157.095C316.139 157.095 316.515 157.169 316.866 157.315C317.216 157.46 317.535 157.673 317.803 157.942C318.072 158.21 318.285 158.529 318.43 158.879C318.576 159.23 318.651 159.606 318.651 159.986C318.651 160.365 318.576 160.741 318.43 161.092C318.285 161.443 318.072 161.761 317.803 162.03L317.717 162.116C317.384 162.457 317.16 162.889 317.075 163.358C316.99 163.826 317.048 164.31 317.24 164.745V164.861C317.423 165.288 317.727 165.652 318.115 165.909C318.502 166.166 318.956 166.303 319.421 166.305H319.667C320.433 166.305 321.168 166.61 321.709 167.151C322.251 167.693 322.556 168.428 322.556 169.194C322.556 169.96 322.251 170.695 321.709 171.237C321.168 171.779 320.433 172.083 319.667 172.083H319.537C319.072 172.085 318.618 172.223 318.23 172.479C317.843 172.736 317.539 173.1 317.356 173.527V173.527Z" stroke="#CCC080" stroke-width="2.5" stroke-linecap="round" stroke-linejoin="round"/>
</g>
<path d="M289.333 150.416C295.715 150.416 300.889 145.243 300.889 138.861C300.889 132.479 295.715 127.305 289.333 127.305C282.951 127.305 277.778 132.479 277.778 138.861C277.778 145.243 282.951 150.416 289.333 150.416Z" fill="#ECE4B6" stroke="#CCC080" stroke-width="2.5" stroke-linecap="round" stroke-linejoin="round"/>
<path d="M272 184.774V173.527C272 170.463 273.217 167.523 275.385 165.356C277.552 163.189 280.491 161.972 283.556 161.972H286.444" stroke="#CCC080" stroke-width="2.5" stroke-linecap="round" stroke-linejoin="round"/>
<circle cx="1204.5" cy="157.5" r="67.5" fill="#FEEBD9"/>
<path d="M1238 127H1244" stroke="#DBB593" stroke-linecap="round"/>
<path d="M1163 185H1169" stroke="#DBB593" stroke-linecap="round"/>
<path d="M1241 130V124" stroke="#DBB593" stroke-linecap="round"/>
<path d="M1193.67 166.5C1193.67 163.371 1191.13 160.833 1188 160.833C1184.87 160.833 1182.33 163.371 1182.33 166.5V172.167C1182.33 175.296 1184.87 177.833 1188 177.833C1191.13 177.833 1193.67 175.296 1193.67 172.167V166.5Z" fill="#F9D7B7" stroke="#DBB593" stroke-width="2.5" stroke-linecap="round" stroke-linejoin="round"/>
<path d="M1227.67 166.5C1227.67 163.371 1225.13 160.833 1222 160.833C1218.87 160.833 1216.33 163.371 1216.33 166.5V172.167C1216.33 175.296 1218.87 177.833 1222 177.833C1225.13 177.833 1227.67 175.296 1227.67 172.167V166.5Z" fill="#F9D7B7" stroke="#DBB593" stroke-width="2.5" stroke-linecap="round" stroke-linejoin="round"/>
<path d="M1182.33 166.5V158C1182.33 151.989 1184.72 146.223 1188.97 141.972C1193.22 137.722 1198.99 135.333 1205 135.333C1211.01 135.333 1216.78 137.722 1221.03 141.972C1225.28 146.223 1227.67 151.989 1227.67 158V166.5" stroke="#DBB593" stroke-width="2.5" stroke-linecap="round" stroke-linejoin="round"/>
<path d="M1222 177.833C1222 180.088 1220.21 182.25 1217.02 183.844C1213.83 185.438 1209.51 186.333 1205 186.333" stroke="#DBB593" stroke-width="2.5" stroke-linecap="round" stroke-linejoin="round"/>
<circle cx="67.5" cy="67.5" r="67.5" fill="#FFE9E9"/>
<path d="M90.3333 44.6665H43.6667C42.0558 44.6665 40.75 45.9723 40.75 47.5832V76.7498C40.75 78.3607 42.0558 79.6665 43.6667 79.6665H90.3333C91.9442 79.6665 93.25 78.3607 93.25 76.7498V47.5832C93.25 45.9723 91.9442 44.6665 90.3333 44.6665Z" fill="#FFDADA" stroke="#EBAAAA" stroke-width="2.5" stroke-linecap="round" stroke-linejoin="round"/>
<path d="M52.4167 91.3335H81.5833" stroke="#EBAAAA" stroke-width="2.5" stroke-linecap="round" stroke-linejoin="round"/>
<path d="M58.25 79.6665V91.3332" stroke="#EBAAAA" stroke-width="2.5" stroke-linecap="round" stroke-linejoin="round"/>
<path d="M75.75 79.6665V91.3332" stroke="#EBAAAA" stroke-width="2.5" stroke-linecap="round" stroke-linejoin="round"/>
<path d="M58.25 68.0002V56.3335" stroke="#EBAAAA" stroke-width="2.5" stroke-linecap="round" stroke-linejoin="round"/>
<path d="M67 68.0002V65.0835" stroke="#2C3E50" stroke-width="1.5" stroke-linecap="round" stroke-linejoin="round"/>
<path d="M75.75 67.9998V62.1665" stroke="#EBAAAA" stroke-width="2.5" stroke-linecap="round" stroke-linejoin="round"/>
<path d="M67 68.0002V65.0835" stroke="#EBAAAA" stroke-width="2.5" stroke-linecap="round" stroke-linejoin="round"/>
<path d="M102 37H108" stroke="#EBAAAA" stroke-linecap="round"/>
<path d="M27 95H33" stroke="#EBAAAA" stroke-linecap="round"/>
<path d="M105 40V34" stroke="#EBAAAA" stroke-linecap="round"/>
<circle cx="758.5" cy="157.5" r="67.5" fill="#D9F5E4"/>
<path d="M790 127H796" stroke="#86C29C" stroke-linecap="round"/>
<path d="M715 185H721" stroke="#86C29C" stroke-linecap="round"/>
<path d="M793 130V124" stroke="#86C29C" stroke-linecap="round"/>
<rect x="736" y="147" width="44" height="34" fill="#BAE6CB"/>
<circle cx="771.5" cy="163.5" r="1.5" fill="#86C29C"/>
<path d="M773.167 146.667V138.167C773.167 137.415 772.868 136.695 772.337 136.163C771.805 135.632 771.085 135.333 770.333 135.333H742C740.497 135.333 739.056 135.931 737.993 136.993C736.93 138.056 736.333 139.497 736.333 141M736.333 141C736.333 142.503 736.93 143.944 737.993 145.007C739.056 146.07 740.497 146.667 742 146.667H776C776.751 146.667 777.472 146.965 778.003 147.497C778.535 148.028 778.833 148.749 778.833 149.5V158M736.333 141V175C736.333 176.503 736.93 177.944 737.993 179.007C739.056 180.07 740.497 180.667 742 180.667H776C776.751 180.667 777.472 180.368 778.003 179.837C778.535 179.306 778.833 178.585 778.833 177.833V169.333" stroke="#86C29C" stroke-width="2.5" stroke-linecap="round" stroke-linejoin="round"/>
<path d="M781.667 158V169.333H770.333C768.83 169.333 767.389 168.736 766.326 167.674C765.264 166.611 764.667 165.17 764.667 163.667C764.667 162.164 765.264 160.722 766.326 159.66C767.389 158.597 768.83 158 770.333 158H781.667Z" stroke="#86C29C" stroke-width="2.5" stroke-linecap="round" stroke-linejoin="round"/>
<defs>
<clipPath id="clip0_84_3700">
<rect width="34.6667" height="34.6667" fill="white" transform="translate(289.333 151.861)"/>
</clipPath>
</defs>
</svg>
