<svg width="28" height="28" viewBox="0 0 28 28" fill="none" xmlns="http://www.w3.org/2000/svg">
<path d="M10.5 4.66699H5.83332C5.18899 4.66699 4.66666 5.18933 4.66666 5.83366V10.5003C4.66666 11.1447 5.18899 11.667 5.83332 11.667H10.5C11.1443 11.667 11.6667 11.1447 11.6667 10.5003V5.83366C11.6667 5.18933 11.1443 4.66699 10.5 4.66699Z" stroke="#2B303C" stroke-width="2" stroke-linecap="round" stroke-linejoin="round"/>
<path d="M8.16666 19.833V19.8447" stroke="#2B303C" stroke-width="2" stroke-linecap="round" stroke-linejoin="round"/>
<path d="M22.1667 4.66699H17.5C16.8557 4.66699 16.3333 5.18933 16.3333 5.83366V10.5003C16.3333 11.1447 16.8557 11.667 17.5 11.667H22.1667C22.811 11.667 23.3333 11.1447 23.3333 10.5003V5.83366C23.3333 5.18933 22.811 4.66699 22.1667 4.66699Z" stroke="#2B303C" stroke-width="2" stroke-linecap="round" stroke-linejoin="round"/>
<path d="M8.16666 8.16699V8.17866" stroke="#2B303C" stroke-width="2" stroke-linecap="round" stroke-linejoin="round"/>
<path d="M10.5 16.333H5.83332C5.18899 16.333 4.66666 16.8553 4.66666 17.4997V22.1663C4.66666 22.8107 5.18899 23.333 5.83332 23.333H10.5C11.1443 23.333 11.6667 22.8107 11.6667 22.1663V17.4997C11.6667 16.8553 11.1443 16.333 10.5 16.333Z" stroke="#2B303C" stroke-width="2" stroke-linecap="round" stroke-linejoin="round"/>
<path d="M19.8333 8.16699V8.17866" stroke="#2B303C" stroke-width="2" stroke-linecap="round" stroke-linejoin="round"/>
<path d="M16.3333 16.333H19.8333" stroke="#2B303C" stroke-width="2" stroke-linecap="round" stroke-linejoin="round"/>
<path d="M23.3333 16.333V16.3447" stroke="#2B303C" stroke-width="2" stroke-linecap="round" stroke-linejoin="round"/>
<path d="M16.3333 16.333V19.833" stroke="#2B303C" stroke-width="2" stroke-linecap="round" stroke-linejoin="round"/>
<path d="M16.3333 23.333H19.8333" stroke="#2B303C" stroke-width="2" stroke-linecap="round" stroke-linejoin="round"/>
<path d="M19.8333 19.833H23.3333" stroke="#2B303C" stroke-width="2" stroke-linecap="round" stroke-linejoin="round"/>
<path d="M23.3333 19.833V23.333" stroke="#2B303C" stroke-width="2" stroke-linecap="round" stroke-linejoin="round"/>
</svg>
