<svg width="32" height="32" viewBox="0 0 32 32" fill="none" xmlns="http://www.w3.org/2000/svg">
<path d="M25.3333 12H12C10.5272 12 9.33331 13.1939 9.33331 14.6667V22.6667C9.33331 24.1394 10.5272 25.3333 12 25.3333H25.3333C26.8061 25.3333 28 24.1394 28 22.6667V14.6667C28 13.1939 26.8061 12 25.3333 12Z" stroke="#2B303C" stroke-width="2" stroke-linecap="round" stroke-linejoin="round"/>
<path d="M18.6667 21.3333C20.1394 21.3333 21.3333 20.1394 21.3333 18.6667C21.3333 17.1939 20.1394 16 18.6667 16C17.1939 16 16 17.1939 16 18.6667C16 20.1394 17.1939 21.3333 18.6667 21.3333Z" stroke="#2B303C" stroke-width="2" stroke-linecap="round" stroke-linejoin="round"/>
<path d="M22.6667 12.0003V9.33366C22.6667 8.62641 22.3857 7.94814 21.8856 7.44804C21.3855 6.94794 20.7072 6.66699 20 6.66699H6.66667C5.95942 6.66699 5.28115 6.94794 4.78105 7.44804C4.28095 7.94814 4 8.62641 4 9.33366V17.3337C4 18.0409 4.28095 18.7192 4.78105 19.2193C5.28115 19.7194 5.95942 20.0003 6.66667 20.0003H9.33333" stroke="#2B303C" stroke-width="2" stroke-linecap="round" stroke-linejoin="round"/>
</svg>
