<svg width="34" height="34" viewBox="0 0 34 34" fill="none" xmlns="http://www.w3.org/2000/svg">
<path d="M9.9705 6.375C8.57402 7.29805 7.37298 8.48706 6.43591 9.87417" stroke="#2C3E50" stroke-width="2" stroke-linecap="round" stroke-linejoin="round"/>
<path d="M4.5135 14.4629C4.18754 16.1034 4.18754 17.792 4.5135 19.4326" stroke="#2C3E50" stroke-width="2" stroke-linecap="round" stroke-linejoin="round"/>
<path d="M6.375 24.0293C7.29805 25.4258 8.48706 26.6268 9.87417 27.5639" stroke="#2C3E50" stroke-width="2" stroke-linecap="round" stroke-linejoin="round"/>
<path d="M24.0295 27.6251C25.426 26.7021 26.627 25.5131 27.5641 24.126" stroke="#2C3E50" stroke-width="1.5" stroke-linecap="round" stroke-linejoin="round"/>
<path d="M29.4865 19.5371C29.8125 17.8965 29.8125 16.2079 29.4865 14.5674" stroke="#2C3E50" stroke-width="1.5" stroke-linecap="round" stroke-linejoin="round"/>
<path d="M27.625 9.97062C26.702 8.57414 25.5129 7.3731 24.1258 6.43604" stroke="#2C3E50" stroke-width="1.5" stroke-linecap="round" stroke-linejoin="round"/>
<path d="M17 11.3335L14.1667 17.0002H19.8333L17 22.6668" stroke="#2C3E50" stroke-width="2" stroke-linecap="round" stroke-linejoin="round"/>
<path d="M17 29.75C20.3815 29.75 23.6245 28.4067 26.0156 26.0156C28.4067 23.6245 29.75 20.3815 29.75 17C29.75 13.6185 28.4067 10.3755 26.0156 7.98439C23.6245 5.5933 20.3815 4.25 17 4.25" stroke="#2C3E50" stroke-width="2" stroke-linecap="round" stroke-linejoin="round"/>
</svg>
