<svg width="32" height="32" viewBox="0 0 32 32" fill="none" xmlns="http://www.w3.org/2000/svg">
<path d="M24.5333 7.46667L23.6 8.4M4 16H5.33333H4ZM16 4V5.33333V4ZM26.6667 16H28H26.6667ZM7.46667 7.46667L8.4 8.4L7.46667 7.46667Z" stroke="#2B303C" stroke-width="2" stroke-linecap="round" stroke-linejoin="round"/>
<path d="M12 21.3335C10.8806 20.494 10.0538 19.3235 9.63656 17.9879C9.21935 16.6524 9.23295 15.2194 9.67542 13.892C10.1179 12.5646 10.9668 11.41 12.1019 10.5919C13.237 9.77375 14.6008 9.3335 16 9.3335C17.3992 9.3335 18.7629 9.77375 19.898 10.5919C21.0332 11.41 21.8821 12.5646 22.3245 13.892C22.767 15.2194 22.7806 16.6524 22.3634 17.9879C21.9462 19.3235 21.1194 20.494 20 21.3335C19.4794 21.8488 19.0874 22.4794 18.8558 23.1743C18.6242 23.8692 18.5594 24.6089 18.6666 25.3335C18.6666 26.0407 18.3857 26.719 17.8856 27.2191C17.3855 27.7192 16.7072 28.0002 16 28.0002C15.2927 28.0002 14.6145 27.7192 14.1144 27.2191C13.6143 26.719 13.3333 26.0407 13.3333 25.3335C13.4406 24.6089 13.3758 23.8692 13.1442 23.1743C12.9125 22.4794 12.5206 21.8488 12 21.3335" stroke="#2B303C" stroke-width="2" stroke-linecap="round" stroke-linejoin="round"/>
<path d="M12.9333 22.6665H19.0667" stroke="#2B303C" stroke-width="2" stroke-linecap="round" stroke-linejoin="round"/>
</svg>
