<svg width="30" height="30" viewBox="0 0 30 30" fill="none" xmlns="http://www.w3.org/2000/svg">
<path d="M10 16.25V6.875C10 6.37772 10.1975 5.90081 10.5492 5.54917C10.9008 5.19754 11.3777 5 11.875 5C12.3723 5 12.8492 5.19754 13.2008 5.54917C13.5525 5.90081 13.75 6.37772 13.75 6.875V15" stroke="#2B303C" stroke-width="2" stroke-linecap="round" stroke-linejoin="round"/>
<path d="M13.75 6.875V4.375C13.75 4.12877 13.7985 3.88495 13.8927 3.65747C13.987 3.42998 14.1251 3.22328 14.2992 3.04917C14.4733 2.87506 14.68 2.73695 14.9075 2.64273C15.135 2.5485 15.3788 2.5 15.625 2.5C15.8712 2.5 16.115 2.5485 16.3425 2.64273C16.57 2.73695 16.7767 2.87506 16.9508 3.04917C17.1249 3.22328 17.263 3.42998 17.3573 3.65747C17.4515 3.88495 17.5 4.12877 17.5 4.375V15" stroke="#2B303C" stroke-width="2" stroke-linecap="round" stroke-linejoin="round"/>
<path d="M17.5 6.875C17.5 6.37772 17.6975 5.90081 18.0492 5.54917C18.4008 5.19754 18.8777 5 19.375 5C19.8723 5 20.3492 5.19754 20.7008 5.54917C21.0525 5.90081 21.25 6.37772 21.25 6.875V15" stroke="#2B303C" stroke-width="2" stroke-linecap="round" stroke-linejoin="round"/>
<path d="M21.25 9.375C21.25 8.87772 21.4475 8.40081 21.7992 8.04917C22.1508 7.69754 22.6277 7.5 23.125 7.5C23.6223 7.5 24.0992 7.69754 24.4508 8.04917C24.8024 8.40081 25 8.87772 25 9.375V20C25 21.9891 24.2098 23.8968 22.8033 25.3033C21.3968 26.7098 19.4891 27.5 17.5 27.5H15H15.26C14.0179 27.5002 12.7952 27.1919 11.7017 26.6029C10.6082 26.0138 9.67813 25.1623 8.99499 24.125C8.913 24.0002 8.83133 23.8752 8.74999 23.75C8.35999 23.1512 6.99124 20.765 4.64249 16.59C4.40305 16.1644 4.33909 15.6622 4.46421 15.1902C4.58934 14.7182 4.89367 14.3136 5.31249 14.0625C5.75858 13.7948 6.28133 13.6839 6.79768 13.7473C7.31404 13.8107 7.79441 14.0448 8.16249 14.4125L9.99999 16.25" stroke="#2B303C" stroke-width="2" stroke-linecap="round" stroke-linejoin="round"/>
</svg>
