<svg width="104" height="107" viewBox="0 0 104 107" fill="none" xmlns="http://www.w3.org/2000/svg">
<path d="M28.4669 42.4166C27.0009 41.6372 25.2435 41.6364 23.7767 42.4144L19.1047 44.8927C15.4391 46.8371 11.1369 43.7282 11.8324 39.6375L12.7467 34.2606C13.021 32.6473 12.4884 31.0018 11.3208 29.8552L7.41473 26.0191C4.46561 23.1228 6.10476 18.1024 10.1947 17.5043L15.4985 16.7288C17.1314 16.49 18.5414 15.4609 19.2665 13.9785L21.6128 9.18189C23.441 5.44461 28.7676 5.44462 30.5957 9.1819L32.942 13.9785C33.6672 15.4609 35.0771 16.49 36.71 16.7288L42.0138 17.5043C46.1038 18.1024 47.7429 23.1228 44.7938 26.0191L40.8877 29.8552C39.7201 31.0018 39.1876 32.6473 39.4619 34.2606L40.3741 39.6256C41.0699 43.7184 36.7633 46.8274 33.0976 44.8786L28.4669 42.4166Z" stroke="#2C3E50" stroke-width="4" stroke-linecap="round" stroke-linejoin="round"/>
<path d="M82.4009 100.924L84.8485 102.225C88.5142 104.174 92.8208 101.065 92.125 96.9723L91.2128 91.6073C90.9385 89.994 91.471 88.3485 92.6386 87.2018L96.5447 83.3658C99.4938 80.4695 97.8547 75.449 93.7647 74.851L88.4609 74.0755C86.828 73.8367 85.418 72.8076 84.6929 71.3251L82.3466 66.5286C80.5185 62.7913 75.1919 62.7913 73.3637 66.5286L71.0174 71.3251C70.2923 72.8076 68.8823 73.8367 67.2494 74.0755L61.9456 74.851C57.8556 75.449 56.2165 80.4695 59.1656 83.3657L63.0717 87.2018C64.2393 88.3485 64.7718 89.994 64.4975 91.6073L63.5833 96.9842C62.8878 101.075 67.19 104.184 70.8556 102.239L73.6591 100.752" stroke="#2C3E50" stroke-width="4" stroke-linecap="round" stroke-linejoin="round"/>
<path d="M65.967 18.1826H99.1859" stroke="#6363FC" stroke-width="4" stroke-linecap="round"/>
<path d="M65.967 32.1699H81.7023" stroke="#6363FC" stroke-width="4" stroke-linecap="round"/>
<path d="M39.0415 75.5293H5.82255" stroke="#6363FC" stroke-width="4" stroke-linecap="round"/>
<path d="M39.0415 89.5166H23.3062" stroke="#6363FC" stroke-width="4" stroke-linecap="round"/>
</svg>
