<svg width="24" height="28" viewBox="0 0 24 28" fill="none" xmlns="http://www.w3.org/2000/svg">
<path d="M8.38156 14.4624L10.7938 16.8545L15.6184 12.0703" stroke="#2B303C" stroke-width="2" stroke-linecap="round" stroke-linejoin="round"/>
<path d="M12 1.25781C14.859 4.1581 18.5904 5.66818 22.4038 5.4681C22.9589 7.63361 23.1288 9.90499 22.9033 12.1473C22.6778 14.3895 22.0614 16.557 21.0909 18.5207C20.1204 20.4845 18.8156 22.2045 17.2538 23.5786C15.6921 24.9527 13.9055 25.9528 12 26.5195C10.0945 25.9528 8.30787 24.9527 6.74616 23.5786C5.18445 22.2045 3.87957 20.4845 2.90907 18.5207C1.93857 16.557 1.32224 14.3895 1.09671 12.1473C0.871184 9.90499 1.04106 7.63361 1.59624 5.4681C5.40956 5.66818 9.14101 4.1581 12 1.25781" stroke="#2B303C" stroke-width="2" stroke-linecap="round" stroke-linejoin="round"/>
</svg>
