<svg width="46" height="46" viewBox="0 0 46 46" fill="none" xmlns="http://www.w3.org/2000/svg">
<path d="M15.3333 5.75H7.66667C6.60812 5.75 5.75 6.60812 5.75 7.66667V15.3333C5.75 16.3919 6.60812 17.25 7.66667 17.25H15.3333C16.3919 17.25 17.25 16.3919 17.25 15.3333V7.66667C17.25 6.60812 16.3919 5.75 15.3333 5.75Z" fill="#E4E4FF"/>
<path d="M38.3333 28.75H30.6667C29.6081 28.75 28.75 29.6081 28.75 30.6667V38.3333C28.75 39.3919 29.6081 40.25 30.6667 40.25H38.3333C39.3919 40.25 40.25 39.3919 40.25 38.3333V30.6667C40.25 29.6081 39.3919 28.75 38.3333 28.75Z" fill="#E4E4FF"/>
<path d="M40.2501 21.0833V15.3333C40.2501 14.3167 39.8462 13.3416 39.1273 12.6228C38.4084 11.9039 37.4334 11.5 36.4167 11.5H24.9167M24.9167 11.5L30.6667 17.25M24.9167 11.5L30.6667 5.75" stroke="#6363FC" stroke-width="2" stroke-linecap="round" stroke-linejoin="round"/>
<path d="M5.75 24.9165V30.6665C5.75 31.6832 6.15387 32.6582 6.87276 33.3771C7.59165 34.096 8.56667 34.4998 9.58333 34.4998H21.0833M21.0833 34.4998L15.3333 28.7498M21.0833 34.4998L15.3333 40.2498" stroke="#6363FC" stroke-width="2" stroke-linecap="round" stroke-linejoin="round"/>
</svg>
