<svg width="40" height="40" viewBox="0 0 40 40" fill="none" xmlns="http://www.w3.org/2000/svg">
<path d="M24 31C32.2843 31 39 24.2843 39 16C39 7.71573 32.2843 1 24 1C15.7157 1 9 7.71573 9 16C9 24.2843 15.7157 31 24 31Z" fill="#DFDFFF"/>
<path d="M15 25L25 15" stroke="#6363FC" stroke-width="2" stroke-linecap="round" stroke-linejoin="round"/>
<path d="M15.8333 16.6667C16.2936 16.6667 16.6667 16.2936 16.6667 15.8333C16.6667 15.3731 16.2936 15 15.8333 15C15.3731 15 15 15.3731 15 15.8333C15 16.2936 15.3731 16.6667 15.8333 16.6667Z" stroke="#6363FC" stroke-width="2" stroke-linecap="round" stroke-linejoin="round"/>
<path d="M24.1668 25.0002C24.6271 25.0002 25.0002 24.6271 25.0002 24.1668C25.0002 23.7066 24.6271 23.3335 24.1668 23.3335C23.7066 23.3335 23.3335 23.7066 23.3335 24.1668C23.3335 24.6271 23.7066 25.0002 24.1668 25.0002Z" stroke="#6363FC" stroke-width="2" stroke-linecap="round" stroke-linejoin="round"/>
<path d="M20 35C28.2843 35 35 28.2843 35 20C35 11.7157 28.2843 5 20 5C11.7157 5 5 11.7157 5 20C5 28.2843 11.7157 35 20 35Z" stroke="#6363FC" stroke-width="2" stroke-linecap="round" stroke-linejoin="round"/>
</svg>
