<svg width="38" height="38" viewBox="0 0 38 38" fill="none" xmlns="http://www.w3.org/2000/svg">
<g clip-path="url(#clip0_81_3229)">
<path d="M25.0833 13.9165H2.91667C1.16776 13.9165 -0.25 15.3343 -0.25 17.0832V32.9165C-0.25 34.6654 1.16776 36.0832 2.91667 36.0832H25.0833C26.8322 36.0832 28.25 34.6654 28.25 32.9165V17.0832C28.25 15.3343 26.8322 13.9165 25.0833 13.9165Z" fill="#DFDFFF"/>
<path d="M30.0833 7.9165H7.91667C6.16776 7.9165 4.75 9.33427 4.75 11.0832V26.9165C4.75 28.6654 6.16776 30.0832 7.91667 30.0832H30.0833C31.8322 30.0832 33.25 28.6654 33.25 26.9165V11.0832C33.25 9.33427 31.8322 7.9165 30.0833 7.9165Z" stroke="#6363FC" stroke-width="2" stroke-linecap="round" stroke-linejoin="round"/>
<path d="M4.75 11.0835L19 20.5835L33.25 11.0835" stroke="#6363FC" stroke-width="2" stroke-linecap="round" stroke-linejoin="round"/>
</g>
<defs>
<clipPath id="clip0_81_3229">
<rect width="38" height="38" fill="white"/>
</clipPath>
</defs>
</svg>
