<svg width="46" height="46" viewBox="0 0 46 46" fill="none" xmlns="http://www.w3.org/2000/svg">
<path d="M23 24.917C26.1756 24.917 28.75 22.3426 28.75 19.167C28.75 15.9914 26.1756 13.417 23 13.417C19.8244 13.417 17.25 15.9914 17.25 19.167C17.25 22.3426 19.8244 24.917 23 24.917Z" stroke="#2B303C" stroke-width="2.5" stroke-linecap="round" stroke-linejoin="round"/>
<path d="M23 41.5913C33.1583 32.583 38.3333 24.9163 38.3333 19.1663C38.3333 15.0997 36.7178 11.1996 33.8423 8.32404C30.9667 5.44848 27.0666 3.83301 23 3.83301C18.9333 3.83301 15.0332 5.44848 12.1577 8.32404C9.2821 11.1996 7.66663 15.0997 7.66663 19.1663C7.66663 24.9163 12.8416 32.3913 23 41.5913Z" stroke="#2B303C" stroke-width="2.5" stroke-linecap="round" stroke-linejoin="round"/>
</svg>
