<svg width="44" height="44" viewBox="0 0 44 44" fill="none" xmlns="http://www.w3.org/2000/svg">
<path d="M36.6667 31.1667V9.16667C36.6667 7.1115 35.0552 5.5 33 5.5C30.9449 5.5 29.3334 7.1115 29.3334 9.16667V31.1667L33 34.8333L36.6667 31.1667Z" stroke="#2B303C" stroke-width="2.5" stroke-linecap="round" stroke-linejoin="round"/>
<path d="M29.3334 12.833H36.6667" stroke="#2B303C" stroke-width="2.5" stroke-linecap="round" stroke-linejoin="round"/>
<path d="M33 34.8337H9.16667C8.19421 34.8337 7.26158 34.4474 6.57394 33.7597C5.88631 33.0721 5.5 32.1395 5.5 31.167C5.5 30.1945 5.88631 29.2619 6.57394 28.5743C7.26158 27.8866 8.19421 27.5003 9.16667 27.5003H16.5C17.4725 27.5003 18.4051 27.114 19.0927 26.4264C19.7804 25.7388 20.1667 24.8061 20.1667 23.8337C20.1667 22.8612 19.7804 21.9286 19.0927 21.2409C18.4051 20.5533 17.4725 20.167 16.5 20.167H11" stroke="#2B303C" stroke-width="2.5" stroke-linecap="round" stroke-linejoin="round"/>
</svg>
