<svg width="44" height="44" viewBox="0 0 44 44" fill="none" xmlns="http://www.w3.org/2000/svg">
<path d="M34.8333 5.5H9.16667C7.14162 5.5 5.5 7.14162 5.5 9.16667V34.8333C5.5 36.8584 7.14162 38.5 9.16667 38.5H34.8333C36.8584 38.5 38.5 36.8584 38.5 34.8333V9.16667C38.5 7.14162 36.8584 5.5 34.8333 5.5Z" stroke="#2B303C" stroke-width="2.5" stroke-linecap="round" stroke-linejoin="round"/>
<path d="M15.5834 18.333C17.1022 18.333 18.3334 17.1018 18.3334 15.583C18.3334 14.0642 17.1022 12.833 15.5834 12.833C14.0646 12.833 12.8334 14.0642 12.8334 15.583C12.8334 17.1018 14.0646 18.333 15.5834 18.333Z" stroke="#2B303C" stroke-width="2.5" stroke-linecap="round" stroke-linejoin="round"/>
<path d="M37.4 26.583L29.3334 18.333L7.33337 36.6663" stroke="#2B303C" stroke-width="2.5" stroke-linecap="round" stroke-linejoin="round"/>
</svg>
