<svg width="54" height="54" viewBox="0 0 54 54" fill="none" xmlns="http://www.w3.org/2000/svg">
<path d="M22.5 18V13.5C22.5 12.3065 22.9741 11.1619 23.818 10.318C24.6619 9.47411 25.8065 9 27 9H42.75C43.9435 9 45.0881 9.47411 45.932 10.318C46.7759 11.1619 47.25 12.3065 47.25 13.5V40.5C47.25 41.6935 46.7759 42.8381 45.932 43.682C45.0881 44.5259 43.9435 45 42.75 45H27C25.8065 45 24.6619 44.5259 23.818 43.682C22.9741 42.8381 22.5 41.6935 22.5 40.5V36" stroke="#2C3E50" stroke-width="2.5" stroke-linecap="round" stroke-linejoin="round"/>
<path d="M9 27H38.25M38.25 27L31.5 20.25M38.25 27L31.5 33.75" stroke="#2C3E50" stroke-width="2.5" stroke-linecap="round" stroke-linejoin="round"/>
</svg>
