<svg width="62" height="62" viewBox="0 0 62 62" fill="none" xmlns="http://www.w3.org/2000/svg">
<path d="M37.2 52.9069C47.1872 52.9069 55.2834 44.8107 55.2834 34.8236C55.2834 24.8364 47.1872 16.7402 37.2 16.7402C27.2129 16.7402 19.1167 24.8364 19.1167 34.8236C19.1167 44.8107 27.2129 52.9069 37.2 52.9069Z" fill="#DFDFFF"/>
<path d="M31.0001 51.6667C40.9872 51.6667 49.0834 43.5705 49.0834 33.5833C49.0834 23.5962 40.9872 15.5 31.0001 15.5C21.0129 15.5 12.9167 23.5962 12.9167 33.5833C12.9167 43.5705 21.0129 51.6667 31.0001 51.6667Z" stroke="#6363FC" stroke-width="2" stroke-linecap="round" stroke-linejoin="round"/>
<path d="M31 25.833V33.583H36.1667" stroke="#6363FC" stroke-width="2" stroke-linecap="round" stroke-linejoin="round"/>
<path d="M18.0834 10.333L10.9792 15.4997" stroke="#6363FC" stroke-width="2" stroke-linecap="round" stroke-linejoin="round"/>
<path d="M43.9167 10.333L51.0209 15.4997" stroke="#6363FC" stroke-width="2" stroke-linecap="round" stroke-linejoin="round"/>
</svg>
