<svg width="48" height="46" viewBox="0 0 48 46" fill="none" xmlns="http://www.w3.org/2000/svg">
<path d="M36.034 26.5237V32.9046C36.034 33.7508 35.6978 34.5623 35.0995 35.1606C34.5012 35.759 33.6896 36.0951 32.8435 36.0951H10.5101L0.938721 45.6665V13.7618C0.938721 12.9156 1.27486 12.1041 1.87319 11.5058C2.47152 10.9074 3.28303 10.5713 4.1292 10.5713H10.5101" fill="#DFDFFF"/>
<path d="M46.0611 36.0952L36.4896 26.5238H14.1563C13.3101 26.5238 12.4986 26.1877 11.9003 25.5893C11.302 24.991 10.9658 24.1795 10.9658 23.3333V4.19048C10.9658 3.34431 11.302 2.5328 11.9003 1.93447C12.4986 1.33614 13.3101 1 14.1563 1H42.8706C43.7167 1 44.5283 1.33614 45.1266 1.93447C45.7249 2.5328 46.0611 3.34431 46.0611 4.19048V36.0952Z" fill="white" stroke="#6363FC" stroke-width="2" stroke-linecap="round" stroke-linejoin="round"/>
<path d="M32.525 11C32.3757 10.5764 32.1031 10.2072 31.7422 9.9399C31.3813 9.67258 30.9487 9.51937 30.5 9.5H27.5C26.9033 9.5 26.331 9.73705 25.909 10.159C25.4871 10.581 25.25 11.1533 25.25 11.75C25.25 12.3467 25.4871 12.919 25.909 13.341C26.331 13.7629 26.9033 14 27.5 14H30.5C31.0967 14 31.669 14.2371 32.091 14.659C32.5129 15.081 32.75 15.6533 32.75 16.25C32.75 16.8467 32.5129 17.419 32.091 17.841C31.669 18.2629 31.0967 18.5 30.5 18.5H27.5C27.0513 18.4806 26.6187 18.3274 26.2578 18.0601C25.8969 17.7928 25.6243 17.4236 25.475 17" stroke="#6363FC" stroke-width="2" stroke-linecap="round" stroke-linejoin="round"/>
<path d="M29 18.5V20.75M29 7.25V9.5V7.25Z" stroke="#6363FC" stroke-width="2" stroke-linecap="round" stroke-linejoin="round"/>
</svg>
