<svg width="40" height="46" viewBox="0 0 40 46" fill="none" xmlns="http://www.w3.org/2000/svg">
<path d="M13.75 23.9997L17.9167 28.1663L26.25 19.833" stroke="#464B57" stroke-width="2" stroke-linecap="round" stroke-linejoin="round"/>
<path d="M20 1C24.9383 6.05163 31.3835 8.68183 37.9701 8.33333C38.9291 12.1051 39.2225 16.0614 38.833 19.9669C38.4434 23.8724 37.3788 27.6475 35.7025 31.068C34.0262 34.4884 31.7723 37.4843 29.0748 39.8776C26.3773 42.271 23.2913 44.0129 20 45C16.7087 44.0129 13.6227 42.271 10.9252 39.8776C8.22769 37.4843 5.97381 34.4884 4.29749 31.068C2.62116 27.6475 1.55659 23.8724 1.16705 19.9669C0.7775 16.0614 1.07092 12.1051 2.02988 8.33333C8.61651 8.68183 15.0617 6.05163 20 1" stroke="#464B57" stroke-width="2" stroke-linecap="round" stroke-linejoin="round"/>
</svg>
