<svg width="40" height="42" viewBox="0 0 40 42" fill="none" xmlns="http://www.w3.org/2000/svg">
<path d="M16 30C24.2843 30 31 23.2843 31 15C31 6.71573 24.2843 0 16 0C7.71573 0 1 6.71573 1 15C1 23.2843 7.71573 30 16 30Z" fill="#DFDFFF"/>
<path d="M20 37C28.2843 37 35 30.2843 35 22C35 13.7157 28.2843 7 20 7C11.7157 7 5 13.7157 5 22C5 30.2843 11.7157 37 20 37Z" stroke="#6363FC" stroke-width="2" stroke-linecap="round" stroke-linejoin="round"/>
<path d="M24.6667 17.0001C24.3647 16.4764 23.9261 16.0446 23.3976 15.751C22.8692 15.4574 22.2708 15.3131 21.6667 15.3334H18.3333C17.4493 15.3334 16.6014 15.6846 15.9763 16.3097C15.3512 16.9349 15 17.7827 15 18.6668C15 19.5508 15.3512 20.3987 15.9763 21.0238C16.6014 21.6489 17.4493 22.0001 18.3333 22.0001H21.6667C22.5507 22.0001 23.3986 22.3513 24.0237 22.9764C24.6488 23.6015 25 24.4494 25 25.3334C25 26.2175 24.6488 27.0653 24.0237 27.6905C23.3986 28.3156 22.5507 28.6668 21.6667 28.6668H18.3333C17.7292 28.6871 17.1308 28.5428 16.6024 28.2492C16.0739 27.9556 15.6353 27.5238 15.3333 27.0001" stroke="#6363FC" stroke-width="2" stroke-linecap="round" stroke-linejoin="round"/>
<path d="M20 28.6667V32M20 12V15.3333V12Z" stroke="#6363FC" stroke-width="2" stroke-linecap="round" stroke-linejoin="round"/>
</svg>
