<svg width="39" height="39" viewBox="0 0 39 39" fill="none" xmlns="http://www.w3.org/2000/svg">
<path d="M16.8077 38.3089C25.9682 38.3089 33.3943 30.9019 33.3943 21.7648C33.3943 12.6278 25.9682 5.2207 16.8077 5.2207C7.64724 5.2207 0.221191 12.6278 0.221191 21.7648C0.221191 30.9019 7.64724 38.3089 16.8077 38.3089Z" fill="#DFDFFF"/>
<path d="M38 15.6198V16.9998C37.9982 20.2344 36.9508 23.3818 35.014 25.9725C33.0773 28.5633 30.3549 30.4585 27.253 31.3756C24.1511 32.2928 20.8359 32.1826 17.8017 31.0617C14.7675 29.9407 12.177 27.8689 10.4164 25.1554C8.6559 22.4418 7.81969 19.2319 8.03252 16.0043C8.24534 12.7766 9.49581 9.70429 11.5974 7.24541C13.699 4.78653 16.5392 3.07287 19.6943 2.36002C22.8494 1.64716 26.1504 1.9733 29.105 3.2898" stroke="#6363FC" stroke-width="2" stroke-linecap="round" stroke-linejoin="round"/>
<path d="M38 5L23 20.015L18.5 15.515" stroke="#6363FC" stroke-width="2" stroke-linecap="round" stroke-linejoin="round"/>
</svg>
