<svg width="46" height="45" viewBox="0 0 46 45" fill="none" xmlns="http://www.w3.org/2000/svg">
<g clip-path="url(#clip0_72_1424)">
<path d="M18.8077 33.3089C27.9682 33.3089 35.3943 25.9019 35.3943 16.7648C35.3943 7.62776 27.9682 0.220703 18.8077 0.220703C9.64724 0.220703 2.22119 7.62776 2.22119 16.7648C2.22119 25.9019 9.64724 33.3089 18.8077 33.3089Z" fill="#DFDFFF"/>
<path d="M24 38C32.2843 38 39 31.2843 39 23C39 14.7157 32.2843 8 24 8C15.7157 8 9 14.7157 9 23C9 31.2843 15.7157 38 24 38Z" stroke="#6363FC" stroke-width="2" stroke-linecap="round" stroke-linejoin="round"/>
<path d="M28.492 17.4266C27.5609 16.4906 26.4128 15.8808 25.1853 15.6702C23.9577 15.4597 22.703 15.6574 21.5716 16.2396C20.4401 16.8218 19.4801 17.7638 18.8067 18.9525C18.1333 20.1413 17.7751 21.5263 17.7751 22.9413C17.7751 24.3564 18.1333 25.7414 18.8067 26.9301C19.4801 28.1189 20.4401 29.0609 21.5716 29.6431C22.703 30.2253 23.9577 30.423 25.1853 30.2124C26.4128 30.0019 27.5609 29.392 28.492 28.456" stroke="#6363FC" stroke-width="2" stroke-linecap="round" stroke-linejoin="round"/>
</g>
<defs>
<clipPath id="clip0_72_1424">
<rect width="46" height="45" fill="white"/>
</clipPath>
</defs>
</svg>
