<svg width="37" height="39" viewBox="0 0 37 39" fill="none" xmlns="http://www.w3.org/2000/svg">
<path d="M15 30.1975C23.2843 30.1975 30 23.5088 30 15.2579C30 7.00703 23.2843 0.318359 15 0.318359C6.71573 0.318359 0 7.00703 0 15.2579C0 23.5088 6.71573 30.1975 15 30.1975Z" fill="#DFDFFF"/>
<path d="M21 37.1687C29.2843 37.1687 36 30.4801 36 22.2294C36 13.9786 29.2843 7.29004 21 7.29004C12.7157 7.29004 6 13.9786 6 22.2294C6 30.4801 12.7157 37.1687 21 37.1687Z" stroke="#6363FC" stroke-width="2" stroke-linecap="round" stroke-linejoin="round"/>
<path d="M14 29V33" stroke="#6363FC" stroke-width="2" stroke-linecap="round"/>
<path d="M29 29V33" stroke="#6363FC" stroke-width="2" stroke-linecap="round"/>
<path d="M21.5 27V36" stroke="#6363FC" stroke-width="2" stroke-linecap="round"/>
</svg>
