<svg width="70" height="70" viewBox="0 0 70 70" fill="none" xmlns="http://www.w3.org/2000/svg">
<path d="M55.125 20.4165C57.763 24.795 58.8902 29.9185 58.3333 34.9998V37.9165C58.3299 40.9874 59.1346 44.0051 60.6667 46.6665" stroke="#68B785" stroke-width="3" stroke-linecap="round" stroke-linejoin="round"/>
<path d="M23.3335 32.0832C23.3335 28.989 24.5627 26.0215 26.7506 23.8336C28.9385 21.6457 31.906 20.4165 35.0002 20.4165C38.0944 20.4165 41.0618 21.6457 43.2497 23.8336C45.4377 26.0215 46.6668 28.989 46.6668 32.0832V34.9998C46.6668 41.3106 48.7137 47.4512 52.5002 52.4998" stroke="#68B785" stroke-width="3" stroke-linecap="round" stroke-linejoin="round"/>
<path d="M35 32.0835V37.9168C34.9907 46.2567 37.5353 54.3995 42.2917 61.2502" stroke="#68B785" stroke-width="3" stroke-linecap="round" stroke-linejoin="round"/>
<path d="M23.3335 43.75C24.0472 49.8453 25.8241 55.7684 28.5835 61.25" stroke="#68B785" stroke-width="3" stroke-linecap="round" stroke-linejoin="round"/>
<path d="M14.2918 55.4168C12.3237 48.7969 11.4373 41.9026 11.6668 35.0001V32.0835C11.6556 27.9822 12.7256 23.9505 14.7689 20.3945C16.8123 16.8385 19.7568 13.884 23.3058 11.8285C26.8548 9.77304 30.8829 8.68931 34.9842 8.68653C39.0854 8.68375 43.115 9.762 46.6668 11.8126" stroke="#68B785" stroke-width="3" stroke-linecap="round" stroke-linejoin="round"/>
</svg>
