<svg width="74" height="74" viewBox="0 0 74 74" fill="none" xmlns="http://www.w3.org/2000/svg">
<path d="M24.6668 46.2502C24.6668 42.8444 21.9059 40.0835 18.5002 40.0835C15.0944 40.0835 12.3335 42.8444 12.3335 46.2502V52.4168C12.3335 55.8226 15.0944 58.5835 18.5002 58.5835C21.9059 58.5835 24.6668 55.8226 24.6668 52.4168V46.2502Z" stroke="#EA9696" stroke-width="3" stroke-linecap="round" stroke-linejoin="round"/>
<path d="M61.6668 46.2502C61.6668 42.8444 58.9059 40.0835 55.5002 40.0835C52.0944 40.0835 49.3335 42.8444 49.3335 46.2502V52.4168C49.3335 55.8226 52.0944 58.5835 55.5002 58.5835C58.9059 58.5835 61.6668 55.8226 61.6668 52.4168V46.2502Z" stroke="#EA9696" stroke-width="3" stroke-linecap="round" stroke-linejoin="round"/>
<path d="M12.3335 46.2502V37.0002C12.3335 30.4582 14.9323 24.1841 19.5582 19.5582C24.1841 14.9323 30.4582 12.3335 37.0002 12.3335C43.5422 12.3335 49.8162 14.9323 54.4421 19.5582C59.068 24.1841 61.6668 30.4582 61.6668 37.0002V46.2502" stroke="#EA9696" stroke-width="3" stroke-linecap="round" stroke-linejoin="round"/>
<path d="M55.5 58.5835C55.5 61.0367 53.5509 63.3895 50.0815 65.1242C46.6121 66.8589 41.9065 67.8335 37 67.8335" stroke="#EA9696" stroke-width="3" stroke-linecap="round" stroke-linejoin="round"/>
</svg>
